<svg width="49" height="49" viewBox="0 0 49 49" fill="none" xmlns="http://www.w3.org/2000/svg">
<path d="M36.9035 7C36.9675 6.48184 36.9995 6.2227 37 6.0087C37.0052 3.96144 35.2662 2.24128 32.9709 2.02284C32.731 2 32.4371 2 31.8494 2H17.1507C16.5629 2 16.269 2 16.029 2.02284C13.7338 2.24128 11.995 3.96144 12 6.00868C12.0005 6.2227 12.0325 6.4818 12.0965 7" stroke="url(#paint0_linear_89_234)" stroke-width="4"/>
<path d="M41.9249 15C42.4519 11.3466 40.1382 8 37.0859 8H11.9142C8.86178 8 6.54824 11.3466 7.07505 15" stroke="url(#paint1_linear_89_234)" stroke-width="4"/>
<path d="M45.1854 35.8917C44.3984 41.1843 44.0051 43.8305 41.9864 45.4154C39.9677 47 36.9902 47 31.0354 47H17.9646C12.0098 47 9.03245 47 7.01377 45.4154C4.99509 43.8305 4.60159 41.1843 3.81458 35.8917L2.8629 29.4917C1.85933 22.7427 1.35756 19.3683 3.49022 17.1842C5.62289 15 9.41956 15 17.0129 15H31.9871C39.5804 15 43.3771 15 45.5099 17.1842C47.1947 18.9097 47.2352 21.3782 46.6832 25.6667" stroke="url(#paint2_linear_89_234)" stroke-width="4" stroke-linecap="round"/>
<path d="M18 30.0313L22.5333 36.9399C22.9619 37.6466 23.731 38 24.5 38M31 30.0313L26.4667 36.9399C26.0381 37.6466 25.269 38 24.5 38M24.5 38V23" stroke="url(#paint3_linear_89_234)" stroke-width="4" stroke-linejoin="round"/>
<defs>
<linearGradient id="paint0_linear_89_234" x1="37" y1="4.5" x2="12" y2="4.5" gradientUnits="userSpaceOnUse">
<stop stop-color="#191281"/>
<stop offset="0.535" stop-color="#0092A0"/>
<stop offset="1" stop-color="#03AD1E"/>
</linearGradient>
<linearGradient id="paint1_linear_89_234" x1="42" y1="11.5" x2="7" y2="11.5" gradientUnits="userSpaceOnUse">
<stop stop-color="#191281"/>
<stop offset="0.535" stop-color="#0092A0"/>
<stop offset="1" stop-color="#03AD1E"/>
</linearGradient>
<linearGradient id="paint2_linear_89_234" x1="47" y1="31" x2="2" y2="31" gradientUnits="userSpaceOnUse">
<stop stop-color="#191281"/>
<stop offset="0.535" stop-color="#0092A0"/>
<stop offset="1" stop-color="#03AD1E"/>
</linearGradient>
<linearGradient id="paint3_linear_89_234" x1="24.5" y1="38" x2="24.5" y2="23" gradientUnits="userSpaceOnUse">
<stop stop-color="#191281"/>
<stop offset="0.535" stop-color="#0092A0"/>
<stop offset="1" stop-color="#03AD1E"/>
</linearGradient>
</defs>
</svg>
