<svg width="32" height="27" viewBox="0 0 32 27" fill="none" xmlns="http://www.w3.org/2000/svg">
<path d="M21.0476 12.6952C21.0476 15.2527 18.6476 17.3194 15.6776 17.3194C12.7076 17.3194 10.3076 15.2527 10.3076 12.6952C10.3076 10.1377 12.7076 8.07104 15.6776 8.07104C18.6476 8.07104 21.0476 10.1377 21.0476 12.6952Z" stroke="black" stroke-width="2" stroke-linecap="round" stroke-linejoin="round"/>
<path d="M15.6775 23.3771C20.9725 23.3771 25.9075 20.6904 29.3425 16.0404C30.6925 14.2192 30.6925 11.1579 29.3425 9.33667C25.9075 4.68667 20.9725 2 15.6775 2C10.3825 2 5.4475 4.68667 2.0125 9.33667C0.6625 11.1579 0.6625 14.2192 2.0125 16.0404C5.4475 20.6904 10.3825 23.3771 15.6775 23.3771Z" stroke="black" stroke-width="2" stroke-linecap="round" stroke-linejoin="round"/>
<rect x="25.8146" y="0.706178" width="1" height="33" rx="0.5" transform="rotate(42.0623 25.8146 0.706178)" fill="#989898" stroke="black"/>
</svg>
