<svg width="16" height="16" viewBox="0 0 16 16" fill="none" xmlns="http://www.w3.org/2000/svg">
<path fill-rule="evenodd" clip-rule="evenodd" d="M8 16C12.4183 16 16 12.4183 16 8C16 3.58172 12.4183 0 8 0C3.58172 0 0 3.58172 0 8C0 12.4183 3.58172 16 8 16ZM9.54615 9.20621L9.75492 8.99867C10.0435 8.71171 10.4933 8.65277 10.8625 8.85347L11.7382 9.3295C12.3005 9.63516 12.4244 10.3844 11.9849 10.8214L11.3338 11.4687C11.1683 11.6334 10.9629 11.7537 10.7266 11.7757C9.97978 11.8453 8.15346 11.7684 6.20704 9.83302C4.37157 8.00799 4.04264 6.44375 4.00132 5.71674C3.98517 5.43256 4.11835 5.17639 4.3171 4.97878L5.0365 4.26346C5.43731 3.86492 6.11304 3.92663 6.46274 4.39374L7.04067 5.16576C7.32324 5.54317 7.29271 6.06013 6.96885 6.38213L6.8374 6.51284C6.8374 6.51284 6.34122 7.00621 7.69559 8.35288C9.04996 9.6996 9.54615 9.20621 9.54615 9.20621Z" fill="url(#paint0_linear_577_3041)"/>
<defs>
<linearGradient id="paint0_linear_577_3041" x1="-27.5" y1="12.5" x2="23.8538" y2="10.442" gradientUnits="userSpaceOnUse">
<stop stop-color="#05AD25"/>
<stop offset="0.5" stop-color="#0294A1"/>
<stop offset="1" stop-color="#181381"/>
</linearGradient>
</defs>
</svg>
