<svg width="32" height="25" viewBox="0 0 32 25" fill="none" xmlns="http://www.w3.org/2000/svg">
<path d="M21.3699 12.5001C21.3699 15.0576 18.9699 17.1243 15.9999 17.1243C13.0299 17.1243 10.6299 15.0576 10.6299 12.5001C10.6299 9.94264 13.0299 7.87598 15.9999 7.87598C18.9699 7.87598 21.3699 9.94264 21.3699 12.5001Z" stroke="black" stroke-width="2" stroke-linecap="round" stroke-linejoin="round"/>
<path d="M15.9998 23.182C21.2948 23.182 26.2298 20.4953 29.6648 15.8453C31.0148 14.0241 31.0148 10.9628 29.6648 9.1416C26.2298 4.4916 21.2948 1.80493 15.9998 1.80493C10.7048 1.80493 5.76977 4.4916 2.33477 9.1416C0.984766 10.9628 0.984766 14.0241 2.33477 15.8453C5.76977 20.4953 10.7048 23.182 15.9998 23.182Z" stroke="black" stroke-width="2" stroke-linecap="round" stroke-linejoin="round"/>
</svg>
