<svg width="17" height="16" viewBox="0 0 17 16" fill="none" xmlns="http://www.w3.org/2000/svg">
<path d="M10.27 0.257398C8.73866 -0.140707 7.1236 -0.0758036 5.62916 0.443942C4.13471 0.963688 2.82794 1.91492 1.87411 3.17735C0.920289 4.43973 0.362207 5.95672 0.270499 7.53626C0.178767 9.1159 0.557531 10.6872 1.35882 12.0516C2.16014 13.4159 3.34803 14.5119 4.7723 15.2012C6.1965 15.8904 7.79323 16.1418 9.36035 15.9235C10.9275 15.7053 12.3947 15.0274 13.5765 13.9753C14.7582 12.9232 15.6015 11.5443 15.9997 10.0129C16.5335 7.95947 16.2297 5.77802 15.1553 3.94852C14.0808 2.119 12.3234 0.79125 10.27 0.257398ZM12.6947 6.54994L9.86932 12.2112C9.66182 12.6119 9.38503 12.6432 9.07725 12.3566L7.51399 10.4209L6.31216 11.0694C6.2511 11.1171 6.17997 11.1502 6.10417 11.1664C6.02839 11.1824 5.94992 11.181 5.87471 11.1623L6.51343 9.26189L10.9373 6.95065C11.1371 6.85793 10.9927 6.73773 10.7252 6.81284L5.61412 8.42881L3.83446 7.32553C3.45101 7.09152 3.51682 6.79865 4.08009 6.73844L12.2969 5.77491C12.6923 5.76407 12.9467 6.05751 12.6947 6.54994Z" fill="url(#paint0_linear_577_3027)"/>
<defs>
<linearGradient id="paint0_linear_577_3027" x1="-18.1562" y1="4.67564" x2="15.9997" y2="10.0129" gradientUnits="userSpaceOnUse">
<stop stop-color="#05AD25"/>
<stop offset="0.5" stop-color="#0294A1"/>
<stop offset="1" stop-color="#181381"/>
</linearGradient>
</defs>
</svg>
