<svg width="28" height="21" viewBox="0 0 20 20" fill="none" xmlns="http://www.w3.org/2000/svg">
<path d="M14.9614 3C14.987 2.79274 14.9998 2.68908 15 2.60348C15.0021 1.78458 14.3065 1.09651 13.3884 1.00914C13.2924 1 13.1748 1 12.9398 1H7.06028C6.82516 1 6.7076 1 6.61162 1.00914C5.69351 1.09651 4.99799 1.78458 5 2.60347C5.00021 2.68908 5.01301 2.79272 5.0386 3" stroke="#000" stroke-width="1.5"/>
<path d="M16.97 6C17.1808 4.43428 16.2553 3 15.0344 3H4.96567C3.74471 3 2.8193 4.43428 3.03002 6" stroke="#000" stroke-width="1.5"/>
<path d="M18.8615 10.4142L18.8733 10.3333C19.0941 8.59115 19.0779 7.58832 18.4039 6.88732C17.5508 6 16.0322 6 12.9949 6H7.00516C3.96783 6 2.44915 6 1.59609 6.88732C0.922136 7.58833 0.905904 8.59114 1.12675 10.3333C1.44155 12.4834 2.19804 17.7124 3.00551 18.3562C3.81298 19 5.00393 19 7.38582 19H7.38583H12.6142H12.6142C14.9961 19 16.1871 19 16.9945 18.3562C17.7921 17.7203 18.5398 12.6117 18.8615 10.4142Z" stroke="#000" stroke-width="1.5" stroke-linecap="round"/>
<path d="M12.5812 11.2057C13.1396 11.5519 13.1396 12.448 12.5812 12.7942L9.2096 14.8844C8.6669 15.2208 8 14.783 8 14.0902V9.90983C8 9.21712 8.6669 8.77922 9.2096 9.11562L12.5812 11.2057Z" stroke="#000" stroke-width="1.5"/>
</svg>
