<svg width="16" height="17" viewBox="0 0 16 17" fill="none" xmlns="http://www.w3.org/2000/svg">
<path fill-rule="evenodd" clip-rule="evenodd" d="M16 7.981C16 12.3888 12.4268 15.962 8.019 15.962C6.59525 15.962 5.25858 15.5892 4.10128 14.9359L0 16.076L1.31523 12.3135C0.50718 11.0658 0.0380048 9.57819 0.0380048 7.981C0.0380048 3.57321 3.61122 0 8.019 0C12.4268 0 16 3.57321 16 7.981ZM9.40945 9.37436L9.61772 9.16732C9.9056 8.88104 10.3543 8.82224 10.7227 9.02247L11.5963 9.49736C12.1573 9.8023 12.2809 10.5497 11.8424 10.9857L11.1929 11.6315C11.0277 11.7957 10.8228 11.9158 10.5871 11.9377C9.84205 12.0072 8.02006 11.9305 6.07827 9.99969C4.24716 8.17899 3.91901 6.61847 3.87779 5.89318C3.86168 5.60968 3.99454 5.35412 4.19281 5.15698L4.9105 4.44336C5.31037 4.04577 5.98449 4.10733 6.33336 4.57333L6.90992 5.34351C7.19181 5.72002 7.16136 6.23576 6.83827 6.55699L6.70713 6.6874C6.70713 6.6874 6.21213 7.17959 7.56328 8.52306C8.91443 9.86659 9.40945 9.37436 9.40945 9.37436Z" fill="url(#paint0_linear_1964_2054)"/>
<defs>
<linearGradient id="paint0_linear_1964_2054" x1="-4.52256" y1="16.038" x2="23.3433" y2="7.92047" gradientUnits="userSpaceOnUse">
<stop stop-color="#05AD25"/>
<stop offset="0.5" stop-color="#0294A1"/>
<stop offset="1" stop-color="#181381"/>
</linearGradient>
</defs>
</svg>
