<svg width="50" height="50" viewBox="0 0 50 50" fill="none" xmlns="http://www.w3.org/2000/svg">
<path d="M25 0C11.2 0 0 11.2 0 25C0 38.8 11.2 50 25 50C38.8 50 50 38.8 50 25C50 11.2 38.8 0 25 0ZM11.875 30.35C11.875 31.375 11.025 32.225 10 32.225C8.975 32.225 8.125 31.375 8.125 30.35V19.65C8.125 18.625 8.975 17.775 10 17.775C11.025 17.775 11.875 18.625 11.875 19.65V30.35ZM19.375 33.925C19.375 34.95 18.525 35.8 17.5 35.8C16.475 35.8 15.625 34.95 15.625 33.925V16.075C15.625 15.05 16.475 14.2 17.5 14.2C18.525 14.2 19.375 15.05 19.375 16.075V33.925ZM26.875 37.5C26.875 38.525 26.025 39.375 25 39.375C23.975 39.375 23.125 38.525 23.125 37.5V12.5C23.125 11.475 23.975 10.625 25 10.625C26.025 10.625 26.875 11.475 26.875 12.5V37.5ZM34.375 33.925C34.375 34.95 33.525 35.8 32.5 35.8C31.475 35.8 30.625 34.95 30.625 33.925V16.075C30.625 15.05 31.475 14.2 32.5 14.2C33.525 14.2 34.375 15.05 34.375 16.075V33.925ZM41.875 30.35C41.875 31.375 41.025 32.225 40 32.225C38.975 32.225 38.125 31.375 38.125 30.35V19.65C38.125 18.625 38.975 17.775 40 17.775C41.025 17.775 41.875 18.625 41.875 19.65V30.35Z" fill="url(#paint0_linear_532_2038)"/>
<defs>
<linearGradient id="paint0_linear_532_2038" x1="0" y1="25" x2="50" y2="25" gradientUnits="userSpaceOnUse">
<stop stop-color="#09AF25"/>
<stop offset="0.475" stop-color="#0393A0"/>
<stop offset="1" stop-color="#251885"/>
</linearGradient>
</defs>
</svg>
