<svg width="50" height="50" viewBox="0 0 50 50" fill="none" xmlns="http://www.w3.org/2000/svg">
<path fill-rule="evenodd" clip-rule="evenodd" d="M25 50C38.8071 50 50 38.8071 50 25C50 11.1929 38.8071 0 25 0C11.1929 0 0 11.1929 0 25C0 38.8071 11.1929 50 25 50ZM13 24.0625C13 17.8287 17.7101 13 23.2708 13C24.3754 13 25.2708 12.1046 25.2708 11C25.2708 9.89543 24.3754 9 23.2708 9C15.2691 9 9 15.8588 9 24.0625C9 32.2662 15.2691 39.125 23.2708 39.125C26.4212 39.125 29.3031 38.0618 31.6395 36.2719C31.6969 36.3489 31.7605 36.4227 31.8304 36.4926L35.366 40.0282C36.147 40.8092 37.4133 40.8092 38.1944 40.0282C38.9754 39.2471 38.9754 37.9808 38.1944 37.1997L34.6588 33.6642C34.5845 33.5899 34.5059 33.5227 34.4236 33.4625C36.382 30.8704 37.5417 27.5908 37.5417 24.0625C37.5417 22.9579 36.6462 22.0625 35.5417 22.0625C34.4371 22.0625 33.5417 22.9579 33.5417 24.0625C33.5417 30.2963 28.8316 35.125 23.2708 35.125C17.7101 35.125 13 30.2963 13 24.0625ZM25.5 15.125C25.5 14.5727 25.9477 14.125 26.5 14.125H34.25C34.8023 14.125 35.25 14.5727 35.25 15.125C35.25 15.6773 34.8023 16.125 34.25 16.125H26.5C25.9477 16.125 25.5 15.6773 25.5 15.125ZM25.5 19.25C25.5 18.6977 25.9477 18.25 26.5 18.25H30.375C30.9273 18.25 31.375 18.6977 31.375 19.25C31.375 19.8023 30.9273 20.25 30.375 20.25H26.5C25.9477 20.25 25.5 19.8023 25.5 19.25Z" fill="url(#paint0_linear_532_2042)"/>
<defs>
<linearGradient id="paint0_linear_532_2042" x1="0" y1="25" x2="50" y2="25" gradientUnits="userSpaceOnUse">
<stop stop-color="#09AF25"/>
<stop offset="0.475" stop-color="#0393A0"/>
<stop offset="1" stop-color="#251885"/>
</linearGradient>
</defs>
</svg>
