<svg width="8" height="16" viewBox="0 0 8 16" fill="none" xmlns="http://www.w3.org/2000/svg">
<path fill-rule="evenodd" clip-rule="evenodd" d="M8.09131 0.412542C8.14119 0.464341 8.18076 0.525876 8.20776 0.593622C8.23476 0.661368 8.24866 0.733995 8.24866 0.807342C8.24866 0.880689 8.23476 0.953316 8.20776 1.02106C8.18076 1.08881 8.14119 1.15034 8.09131 1.20214L2.0425 7.49886L8.09131 13.7956C8.19188 13.9003 8.24838 14.0423 8.24838 14.1904C8.24838 14.3385 8.19188 14.4805 8.09131 14.5852C7.99074 14.6899 7.85435 14.7487 7.71212 14.7487C7.5699 14.7487 7.4335 14.6899 7.33293 14.5852L0.906003 7.89366C0.856126 7.84187 0.816555 7.78033 0.789555 7.71258C0.762555 7.64484 0.748657 7.57221 0.748657 7.49886C0.748657 7.42552 0.762555 7.35289 0.789555 7.28514C0.816555 7.2174 0.856126 7.15586 0.906003 7.10406L7.33293 0.412542C7.38268 0.360612 7.44179 0.319412 7.50685 0.2913C7.57192 0.263189 7.64168 0.248718 7.71212 0.248718C7.78257 0.248718 7.85232 0.263189 7.91739 0.2913C7.98246 0.319412 8.04156 0.360612 8.09131 0.412542V0.412542Z" fill="black"/>
</svg>
