<svg width="21" height="21" viewBox="0 0 21 21" fill="none" xmlns="http://www.w3.org/2000/svg">
<path fill-rule="evenodd" clip-rule="evenodd" d="M5.14998 0.949951C4.86487 0.949951 4.59144 1.05725 4.38984 1.24824C4.18823 1.43923 4.07498 1.69827 4.07498 1.96837V2.98781C3.0419 3.00207 2.63448 3.11919 2.2249 3.32695C1.79209 3.54401 1.43815 3.87932 1.20903 4.28935C0.974676 4.70385 0.849976 5.11529 0.849976 6.25083V17.0359C0.849976 18.1704 0.974676 18.5829 1.20903 18.9974C1.44338 19.4119 1.78738 19.7378 2.2249 19.9598C2.66243 20.1818 3.09673 20.3 4.29535 20.3H16.7546C17.9522 20.3 18.3875 20.1818 18.8251 19.9598C19.2626 19.7378 19.6066 19.4119 19.8409 18.9974C20.0753 18.5829 20.2 18.1715 20.2 17.0359V6.25083C20.2 5.11529 20.0753 4.70385 19.8409 4.28935C19.6118 3.87932 19.2579 3.54401 18.8251 3.32695C18.4155 3.11919 18.0081 3.00207 16.975 2.98679V1.96837C16.975 1.69827 16.8617 1.43923 16.6601 1.24824C16.4585 1.05725 16.1851 0.949951 15.9 0.949951C15.6149 0.949951 15.3414 1.05725 15.1398 1.24824C14.9382 1.43923 14.825 1.69827 14.825 1.96837V2.98679H6.22498V1.96837C6.22498 1.69827 6.11172 1.43923 5.91012 1.24824C5.70851 1.05725 5.43508 0.949951 5.14998 0.949951ZM2.99998 8.0789V17.0359C2.99998 17.4708 3.0204 17.7427 3.05265 17.9006C3.06555 17.9617 3.07093 17.9759 3.10533 18.037C3.13383 18.0921 3.18067 18.1369 3.23863 18.1643C3.30313 18.1959 3.3171 18.201 3.38268 18.2132C3.5493 18.2438 3.83633 18.2631 4.29535 18.2631H16.7546C17.2136 18.2631 17.5007 18.2438 17.6673 18.2132C17.7184 18.206 17.7674 18.1891 17.8113 18.1633C17.8695 18.1363 17.9167 18.0919 17.9457 18.037C17.9725 17.9953 17.9901 17.9489 17.9973 17.9006C18.0296 17.7427 18.05 17.4708 18.05 17.0359L18.0543 8.0789H2.99998ZM12.4062 12.1526C12.1924 12.1526 11.9873 12.2331 11.8361 12.3763C11.6849 12.5195 11.6 12.7138 11.6 12.9164V15.4625C11.6 15.8841 11.9612 16.2263 12.4062 16.2263H15.0937C15.3076 16.2263 15.5126 16.1458 15.6638 16.0026C15.815 15.8593 15.9 15.665 15.9 15.4625V12.9164C15.9 12.7138 15.815 12.5195 15.6638 12.3763C15.5126 12.2331 15.3076 12.1526 15.0937 12.1526H12.4062Z" fill="white"/>
</svg>
