<svg width="27" height="27" viewBox="0 0 27 27" fill="none" xmlns="http://www.w3.org/2000/svg">
<path d="M19.7249 8.422C19.6604 8.41125 19.5851 8.41125 19.5206 8.422C18.0371 8.36825 16.8546 7.1535 16.8546 5.6485C16.8546 4.11125 18.0909 2.875 19.6281 2.875C21.1654 2.875 22.4016 4.122 22.4016 5.6485C22.3909 7.1535 21.2084 8.36825 19.7249 8.422Z" stroke="white" stroke-width="1.5" stroke-linecap="round" stroke-linejoin="round"/>
<path d="M18.6175 16.2479C20.0902 16.4952 21.7135 16.2372 22.853 15.4739C24.3687 14.4634 24.3687 12.8079 22.853 11.7974C21.7027 11.0342 20.058 10.7762 18.5852 11.0342" stroke="white" stroke-width="1.5" stroke-linecap="round" stroke-linejoin="round"/>
<path d="M6.79272 8.422C6.85722 8.41125 6.93247 8.41125 6.99697 8.422C8.48047 8.36825 9.66297 7.1535 9.66297 5.6485C9.66297 4.11125 8.42672 2.875 6.88947 2.875C5.35222 2.875 4.11597 4.122 4.11597 5.6485C4.12672 7.1535 5.30922 8.36825 6.79272 8.422Z" stroke="white" stroke-width="1.5" stroke-linecap="round" stroke-linejoin="round"/>
<path d="M7.8999 16.2479C6.42715 16.4952 4.8039 16.2372 3.6644 15.4739C2.14865 14.4634 2.14865 12.8079 3.6644 11.7974C4.81465 11.0342 6.4594 10.7762 7.93215 11.0342" stroke="white" stroke-width="1.5" stroke-linecap="round" stroke-linejoin="round"/>
<path d="M13.2748 16.4523C13.2103 16.4415 13.135 16.4415 13.0705 16.4523C11.587 16.3985 10.4045 15.1838 10.4045 13.6788C10.4045 12.1415 11.6408 10.9053 13.178 10.9053C14.7153 10.9053 15.9515 12.1523 15.9515 13.6788C15.9408 15.1838 14.7583 16.4093 13.2748 16.4523Z" stroke="white" stroke-width="1.5" stroke-linecap="round" stroke-linejoin="round"/>
<path d="M10.1466 19.8385C8.63083 20.849 8.63083 22.5045 10.1466 23.515C11.8666 24.6653 14.6831 24.6653 16.4031 23.515C17.9188 22.5045 17.9188 20.849 16.4031 19.8385C14.6938 18.699 11.8666 18.699 10.1466 19.8385Z" stroke="white" stroke-width="1.5" stroke-linecap="round" stroke-linejoin="round"/>
</svg>
