<svg width="15" height="15" viewBox="0 0 15 15" fill="none" xmlns="http://www.w3.org/2000/svg">
<path fill-rule="evenodd" clip-rule="evenodd" d="M14.5635 1.35991C14.8227 1.10075 14.8227 0.680576 14.5635 0.421419C14.3044 0.162261 13.8842 0.162261 13.625 0.421419L7.49124 6.5552L1.35747 0.421435C1.09831 0.162277 0.678135 0.162277 0.418977 0.421435C0.15982 0.680592 0.15982 1.10077 0.418977 1.35993L6.55274 7.49369L0.421373 13.6251C0.162216 13.8842 0.162216 14.3044 0.421373 14.5636C0.680531 14.8227 1.10071 14.8227 1.35987 14.5636L7.49124 8.43219L13.6226 14.5636C13.8818 14.8227 14.302 14.8227 14.5611 14.5636C14.8203 14.3044 14.8203 13.8842 14.5611 13.6251L8.42973 7.49369L14.5635 1.35991Z" fill="#11418D"/>
</svg>
