<svg width="60" height="60" viewBox="0 0 60 60" fill="none" xmlns="http://www.w3.org/2000/svg">
<path fill-rule="evenodd" clip-rule="evenodd" d="M30 0C13.44 0 0 13.44 0 30C0 46.56 13.44 60 30 60C46.56 60 60 46.56 60 30C60 13.44 46.56 0 30 0ZM15.21 48.84C16.5 46.14 24.36 43.5 30 43.5C35.64 43.5 43.53 46.14 44.79 48.84C40.71 52.08 35.58 54 30 54C24.42 54 19.29 52.08 15.21 48.84ZM30 37.5C34.38 37.5 44.79 39.27 49.08 44.49C52.14 40.47 54 35.46 54 30C54 16.77 43.23 6 30 6C16.77 6 6 16.77 6 30C6 35.46 7.86 40.47 10.92 44.49C15.21 39.27 25.62 37.5 30 37.5ZM30 12C24.18 12 19.5 16.68 19.5 22.5C19.5 28.32 24.18 33 30 33C35.82 33 40.5 28.32 40.5 22.5C40.5 16.68 35.82 12 30 12ZM25.5 22.5C25.5 24.99 27.51 27 30 27C32.49 27 34.5 24.99 34.5 22.5C34.5 20.01 32.49 18 30 18C27.51 18 25.5 20.01 25.5 22.5Z" fill="white"/>
</svg>
