<svg width="26" height="19" viewBox="0 0 26 19" fill="none" xmlns="http://www.w3.org/2000/svg">
<path d="M17 9.5C17 11.4358 15.4358 13 13.5 13C11.5642 13 10 11.4358 10 9.5C10 7.56425 11.5642 6 13.5 6C15.4358 6 17 7.56425 17 9.5Z" stroke="black" stroke-width="1.5" stroke-linecap="round" stroke-linejoin="round"/>
<path d="M13 18C17.3291 18 21.3638 15.8634 24.1722 12.1656C25.2759 10.7172 25.2759 8.28278 24.1722 6.83444C21.3638 3.13656 17.3291 1 13 1C8.67092 1 4.63618 3.13656 1.8278 6.83444C0.724067 8.28278 0.724067 10.7172 1.8278 12.1656C4.63618 15.8634 8.67092 18 13 18Z" stroke="black" stroke-width="1.5" stroke-linecap="round" stroke-linejoin="round"/>
</svg>
