<svg width="66" height="66" viewBox="0 0 66 66" fill="none" xmlns="http://www.w3.org/2000/svg">
<path d="M56.2335 19.6667C56.9362 14.4476 53.8512 9.66666 49.7815 9.66666H16.2192C12.1494 9.66666 9.06465 14.4476 9.76706 19.6667" stroke="white" stroke-width="4"/>
<path d="M49.5376 9.66667C49.623 8.97579 49.6657 8.63027 49.6663 8.34493C49.6732 5.61525 47.3546 3.32171 44.2942 3.03045C43.9743 3 43.5825 3 42.7989 3H23.2006C22.4169 3 22.025 3 21.7051 3.03045C18.6447 3.32171 16.3263 5.61525 16.333 8.34491C16.3337 8.63027 16.3764 8.97573 16.4617 9.66667" stroke="white" stroke-width="4"/>
<path d="M60.5806 47.9575C59.5312 55.1246 59.0068 58.708 56.3152 60.8541C53.6235 63 49.6536 63 41.7138 63H24.2861C16.3464 63 12.3766 63 9.68503 60.8541C6.99346 58.708 6.46878 55.1246 5.41944 47.9575L4.15053 39.2909C2.81244 30.1516 2.14341 25.5821 4.98696 22.6244C7.83052 19.6667 12.8928 19.6667 23.0172 19.6667H42.9828C53.1072 19.6667 58.1695 19.6667 61.0132 22.6244C63.2596 24.9611 63.3136 28.3038 62.5777 34.1111" stroke="white" stroke-width="4" stroke-linecap="round"/>
<path d="M41.6037 37.0191C43.465 38.1731 43.465 41.1601 41.6037 42.3142L30.365 49.2812C28.556 50.4025 26.333 48.9432 26.333 46.6338V32.6994C26.333 30.3904 28.556 28.9307 30.365 30.0521L41.6037 37.0191Z" stroke="white" stroke-width="4"/>
</svg>
