<svg width="22" height="23" viewBox="0 0 22 23" fill="none" xmlns="http://www.w3.org/2000/svg">
<path d="M18 3.86364C18 2.2821 16.7315 1 15.1667 1H3.83333C2.26853 1 1 2.2821 1 3.86364V19.1364C1 20.7179 2.26853 22 3.83333 22H15.1667C16.7315 22 18 20.7179 18 19.1364V18.1818" stroke="white" stroke-width="1.2" stroke-linecap="round" stroke-linejoin="round"/>
<path d="M12.0826 17.2235L12.0826 17.2235C12.551 17.1455 12.9831 16.9231 13.3189 16.5874L13.3189 16.5874M12.0826 17.2235L13.7432 17.0117L13.3189 16.5874M12.0826 17.2235L11.136 17.3813C11.136 17.3813 11.136 17.3813 11.136 17.3813C10.2436 17.5301 9.46992 16.7564 9.61866 15.864L9.77643 14.9174L9.18534 14.8188L9.77643 14.9174C9.85448 14.4491 10.0769 14.0169 10.4126 13.6811C10.4126 13.6811 10.4126 13.6811 10.4126 13.681L17.8918 6.20192C18.6944 5.39937 19.9956 5.39936 20.7982 6.20191M12.0826 17.2235L20.7982 9.1082C21.6006 8.30563 21.6006 7.00445 20.7982 6.20191M13.3189 16.5874L20.7981 9.10822L13.3189 16.5874ZM20.7982 6.20191L21.2224 5.77764L20.7981 6.20188C20.7981 6.20189 20.7981 6.2019 20.7982 6.20191Z" stroke="white" stroke-width="1.2"/>
<rect x="4" y="10" width="5" height="1.2" rx="0.6" fill="white"/>
<rect x="4" y="14" width="3" height="1.2" rx="0.6" fill="white"/>
<rect x="4" y="6" width="9" height="1.2" rx="0.6" fill="white"/>
</svg>
