<svg width="16" height="18" viewBox="0 0 16 18" fill="none" xmlns="http://www.w3.org/2000/svg">
<path d="M6.72505e-06 3.38539V15.9577C-0.000974373 16.3366 0.10541 16.7083 0.30721 17.0309M6.72505e-06 3.38539L0.650005 3.38673C0.650006 3.38652 0.650006 3.3863 0.650007 3.38608M6.72505e-06 3.38539H0.650007V3.38608M6.72505e-06 3.38539C0.00186694 2.48809 0.36481 1.62807 1.00935 0.993576L1.46533 1.4568C0.94362 1.97039 0.651678 2.66428 0.650007 3.38608M0.650007 3.38608V15.9577V15.9594C0.649342 16.2152 0.721137 16.4669 0.858291 16.6862M0.858291 16.6862L0.30721 17.0309M0.858291 16.6862C0.858294 16.6862 0.858296 16.6862 0.858299 16.6862L0.30721 17.0309M0.858291 16.6862C0.995523 16.9056 1.1931 17.0844 1.42994 17.2012M0.30721 17.0309C0.509021 17.3536 0.798252 17.6144 1.14241 17.7842M1.14241 17.7842L1.42992 17.2012C1.42993 17.2012 1.42994 17.2012 1.42994 17.2012M1.14241 17.7842L1.42994 17.2012M1.14241 17.7842L15.35 3.38674L15.35 15.9577L15.35 15.9587C15.3504 16.2144 15.2784 16.4658 15.1411 16.6849L15.1411 16.6849C15.0038 16.904 14.8062 17.0825 14.5694 17.1991L14.5693 17.1991C14.3325 17.3156 14.0667 17.3652 13.8019 17.3414L13.8018 17.3414C13.537 17.3178 13.2852 17.2219 13.0744 17.0658L13.0732 17.0649L8.78661 13.9045L8.78661 13.9045L8.78417 13.9027C8.55681 13.7367 8.28252 13.6479 8.00176 13.6479C7.72101 13.6479 7.44671 13.7367 7.21936 13.9027L7.21935 13.9027L7.21685 13.9046L2.92674 17.0684L2.92605 17.0689C2.71494 17.225 2.46281 17.3208 2.19784 17.3443C1.93284 17.3678 1.66682 17.3181 1.42994 17.2012M14.5347 1.45679C15.0564 1.97042 15.3484 2.6644 15.35 3.38629L14.5347 1.4568C14.5347 1.4568 14.5347 1.4568 14.5347 1.45679ZM14.5347 1.45679C14.0126 0.942871 13.3028 0.65165 12.5602 0.65M14.5347 1.45679L12.5602 0.65M12.5602 0.65H3.43981C2.69717 0.65165 1.98744 0.94287 1.46534 1.45679L12.5602 0.65Z" stroke="white" stroke-width="1.3"/>
</svg>
