<svg width="20" height="18" viewBox="0 0 20 18" fill="none" xmlns="http://www.w3.org/2000/svg">
<path d="M8.04374 5.53324L8.57996 5.46689L8.61272 4.92757L8.83715 1.23226C8.8602 1.0133 8.98456 0.821044 9.13583 0.722383C9.26343 0.639158 9.41807 0.61179 9.61589 0.726936C11.3384 1.76811 12.97 2.95678 14.5546 4.23579C16.5094 5.82827 18.0753 7.32686 19.1767 8.51611C19.4136 8.772 19.4093 9.22053 19.1525 9.49778C18.068 10.6681 16.8966 11.761 15.6811 12.8059C13.7329 14.4509 11.7434 16.0221 9.58905 17.2763C9.41436 17.3779 9.26371 17.3635 9.14263 17.2993C9.01061 17.2293 8.89367 17.0864 8.85438 16.8962L8.84374 16.8207L8.61571 13.1252L8.57725 12.5018L7.95284 12.5154C5.97552 12.5583 4.05598 13.26 2.5193 14.5679L2.51928 14.5679L2.51458 14.572L2.2505 14.8012C2.21121 14.8344 2.17248 14.8668 2.1343 14.8984L1.89249 15.092C1.85802 15.1187 1.82413 15.1444 1.79083 15.1693L1.57052 15.3266C1.50928 15.368 1.45096 15.4055 1.39552 15.4391L1.20886 15.5431C1.02363 15.6362 0.919768 15.654 0.878162 15.6548C0.850717 15.6213 0.787859 15.5173 0.735347 15.2694C0.682399 15.0195 0.65 14.6719 0.65 14.2043C0.65 9.91194 3.71542 6.13685 7.78721 5.56498L8.04374 5.53324Z" stroke="white" stroke-width="1.3"/>
</svg>
