<svg width="13" height="11" viewBox="0 0 13 11" fill="none" xmlns="http://www.w3.org/2000/svg">
<path d="M8.43888 5.5C8.43888 6.4075 7.57221 7.14083 6.49971 7.14083C5.42721 7.14083 4.56055 6.4075 4.56055 5.5C4.56055 4.5925 5.42721 3.85917 6.49971 3.85917C7.57221 3.85917 8.43888 4.5925 8.43888 5.5Z" stroke="black" stroke-linecap="round" stroke-linejoin="round"/>
<path d="M6.49991 9.29042C8.412 9.29042 10.1941 8.33708 11.4345 6.68708C11.922 6.04083 11.922 4.95458 11.4345 4.30833C10.1941 2.65833 8.412 1.705 6.49991 1.705C4.58783 1.705 2.80575 2.65833 1.56533 4.30833C1.07783 4.95458 1.07783 6.04083 1.56533 6.68708C2.80575 8.33708 4.58783 9.29042 6.49991 9.29042Z" stroke="black" stroke-linecap="round" stroke-linejoin="round"/>
</svg>
