<svg width="25" height="22" viewBox="0 0 25 22" fill="none" xmlns="http://www.w3.org/2000/svg">
<path d="M23.5 3.5H21M23.5 11H17.25M23.5 18.5H17.25M6 21V12.9515C6 12.6915 6 12.5615 5.97447 12.4371C5.95184 12.3269 5.91439 12.2201 5.86315 12.1197C5.80539 12.0067 5.72418 11.9052 5.56174 11.7021L1.43826 6.54783C1.27583 6.34479 1.19461 6.24326 1.13685 6.13021C1.08561 6.02991 1.04816 5.92315 1.02553 5.81282C1 5.68847 1 5.55846 1 5.29844V3C1 2.29994 1 1.9499 1.13624 1.68251C1.25609 1.44731 1.44731 1.25609 1.68251 1.13624C1.9499 1 2.29994 1 3 1H14C14.7001 1 15.0501 1 15.3175 1.13624C15.5528 1.25609 15.7439 1.44731 15.8637 1.68251C16 1.9499 16 2.29994 16 3V5.29844C16 5.55846 16 5.68847 15.9745 5.81282C15.9519 5.92315 15.9144 6.02991 15.8631 6.13021C15.8054 6.24326 15.7241 6.34479 15.5617 6.54783L11.4383 11.7021C11.2759 11.9052 11.1946 12.0067 11.1369 12.1197C11.0856 12.2201 11.0481 12.3269 11.0255 12.4371C11 12.5615 11 12.6915 11 12.9515V17.25L6 21Z" stroke="#09AF29" stroke-width="2" stroke-linecap="round" stroke-linejoin="round"/>
</svg>
