<svg width="24" height="24" viewBox="0 0 24 24" fill="none" xmlns="http://www.w3.org/2000/svg">
<path d="M17.9537 4C17.9844 3.6891 17.9998 3.53362 18 3.40522C18.0025 2.17686 17.1678 1.14477 16.066 1.0137C15.9509 1 15.8098 1 15.5277 1H8.47233C8.19019 1 8.04912 1 7.93394 1.0137C6.83221 1.14477 5.99759 2.17686 6.00001 3.40521C6.00025 3.53362 6.01561 3.68908 6.04632 4" stroke="black" stroke-width="1.5"/>
<path d="M19.9657 8C20.2066 5.91237 19.1489 4 17.7535 4H6.24648C4.8511 4 3.79348 5.91237 4.03431 8" stroke="black" stroke-width="1.5"/>
<path d="M22.1129 17.793C21.7281 20.2739 21.5358 21.5143 20.5489 22.2572C19.562 23 18.1063 23 15.1951 23H8.8049C5.8937 23 4.43809 23 3.45118 22.2572C2.46427 21.5143 2.27189 20.2739 1.88713 17.793L1.42186 14.793C0.931228 11.6294 0.685917 10.0477 1.72855 9.02383C2.77119 8 4.62734 8 8.33964 8H15.6604C19.3727 8 21.2288 8 22.2715 9.02383C23.0952 9.83268 23.115 10.9898 22.8451 13" stroke="black" stroke-width="1.5" stroke-linecap="round"/>
<path d="M14.4974 13.5734C15.1675 13.9773 15.1675 15.0227 14.4974 15.4266L10.4515 17.8651C9.80028 18.2576 9 17.7468 9 16.9385V12.0615C9 11.2533 9.80028 10.7424 10.4515 11.1349L14.4974 13.5734Z" stroke="black" stroke-width="1.5"/>
</svg>
