<svg width="21" height="22" viewBox="0 0 21 22" fill="none" xmlns="http://www.w3.org/2000/svg">
<path d="M5.10139 21.375H16.4486C18.945 21.375 20.9875 19.3591 20.9875 16.8953V9.61581C20.9875 8.15992 20.3067 6.92801 19.1719 6.03208L13.4983 1.77639C11.9097 0.656473 9.64028 0.656473 8.05167 1.88838L2.37806 6.03208C1.24333 6.92801 0.5625 8.15992 0.5625 9.61581V16.8953C0.5625 19.3591 2.605 21.375 5.10139 21.375ZM2.83194 9.61581C2.83194 8.94386 3.17236 8.27191 3.73972 7.82395L9.41333 3.56826C9.86722 3.23228 10.3211 3.12029 10.775 3.12029C11.2289 3.12029 11.6828 3.23228 12.1367 3.56826L17.8103 7.82395C18.3776 8.27191 18.7181 8.94386 18.7181 9.61581V16.8953C18.7181 18.1272 17.6968 19.1351 16.4486 19.1351H5.10139C3.85319 19.1351 2.83194 18.1272 2.83194 16.8953V9.61581Z" fill="white"/>
</svg>
