<svg width="22" height="22" viewBox="0 0 22 22" fill="none" xmlns="http://www.w3.org/2000/svg">
<path d="M16.3589 3.1002C16.3864 2.87739 16.4002 2.76596 16.4004 2.67394C16.4026 1.79361 15.6549 1.05395 14.6679 0.960017C14.5647 0.950195 14.4384 0.950195 14.1856 0.950195H7.86519C7.61244 0.950195 7.48606 0.950195 7.38288 0.960017C6.39592 1.05395 5.64823 1.79361 5.6504 2.67393C5.65062 2.76596 5.66438 2.87737 5.69189 3.1002" stroke="white" stroke-width="1.5"/>
<path d="M18.5177 6.3251C18.7443 4.64194 17.7494 3.1001 16.4369 3.1001H5.61309C4.30056 3.1001 3.30574 4.64194 3.53227 6.3251" stroke="white" stroke-width="1.5"/>
<path d="M19.9193 15.449C19.5809 17.7604 19.4118 18.916 18.5437 19.6082C17.6757 20.3002 16.3954 20.3002 13.8348 20.3002H8.21438C5.65384 20.3002 4.37356 20.3002 3.50553 19.6082C2.6375 18.916 2.46829 17.7604 2.12988 15.449L1.72066 12.654C1.28912 9.70659 1.07336 8.23292 1.9904 7.27906C2.90745 6.3252 4.54002 6.3252 7.80515 6.3252H14.2441C17.5092 6.3252 19.1418 6.3252 20.0589 7.27906C20.7833 8.03264 20.8007 9.11068 20.5634 10.9835" stroke="white" stroke-width="1.5" stroke-linecap="round"/>
<path d="M13.7998 11.921C14.4001 12.2931 14.4001 13.2565 13.7998 13.6286L10.1753 15.8755C9.59192 16.2371 8.875 15.7665 8.875 15.0217V10.5279C8.875 9.78321 9.59192 9.31247 10.1753 9.6741L13.7998 11.921Z" stroke="white" stroke-width="1.5"/>
</svg>
