<svg width="18" height="17" viewBox="0 0 18 17" fill="none" xmlns="http://www.w3.org/2000/svg">
<path d="M8.33808 1.92401C8.55471 1.29431 9.44528 1.29431 9.66192 1.92401L10.8581 5.40108C10.9554 5.68365 11.2212 5.87336 11.5201 5.87336L15.3022 5.87336C15.9899 5.87336 16.2653 6.76142 15.6982 7.15054L12.7086 9.20197C12.4491 9.38002 12.3403 9.70932 12.4427 10.0069L13.6006 13.3727C13.8201 14.0107 13.0989 14.5593 12.5427 14.1776L9.39605 12.0185C9.15741 11.8547 8.84259 11.8547 8.60395 12.0185L5.45733 14.1776C4.90105 14.5593 4.17988 14.0107 4.39935 13.3727L5.55731 10.0069C5.65968 9.70932 5.55091 9.38002 5.29144 9.20197L2.30179 7.15054C1.73471 6.76142 2.01009 5.87336 2.69784 5.87336L6.47993 5.87336C6.77876 5.87336 7.04464 5.68365 7.14185 5.40108L8.33808 1.92401Z" fill="url(#paint0_linear_201_2466)"/>
<defs>
<linearGradient id="paint0_linear_201_2466" x1="0" y1="8.5" x2="18" y2="8.5" gradientUnits="userSpaceOnUse">
<stop stop-color="#09AF25"/>
<stop offset="0.5" stop-color="#0293A0"/>
<stop offset="1" stop-color="#251885"/>
</linearGradient>
</defs>
</svg>
