<svg width="368" height="333" viewBox="0 0 368 333" fill="none" xmlns="http://www.w3.org/2000/svg">
<path fill-rule="evenodd" clip-rule="evenodd" d="M184 0C124.519 0 76.6887 47.9668 76.6887 107.618C76.6887 167.269 124.519 215.235 184 215.235C243.481 215.235 291.311 167.269 291.311 107.618C291.311 47.9668 243.481 0 184 0ZM138.009 107.618C138.009 133.139 158.552 153.74 184 153.74C209.448 153.74 229.991 133.139 229.991 107.618C229.991 82.097 209.448 61.4958 184 61.4958C158.552 61.4958 138.009 82.097 138.009 107.618Z" fill="url(#paint0_linear_291_1670)"/>
<path d="M184 261.357C224.3 261.357 314.55 276.061 364.141 318.033C370.584 323.485 366.316 333 357.876 333H10.1239C1.684 333 -2.58361 323.485 3.85867 318.033C53.4495 276.061 143.7 261.357 184 261.357Z" fill="url(#paint1_linear_291_1670)"/>
<defs>
<linearGradient id="paint0_linear_291_1670" x1="-11" y1="166.5" x2="1058.77" y2="232.376" gradientUnits="userSpaceOnUse">
<stop stop-color="#05AD25"/>
<stop offset="0.5" stop-color="#0294A1"/>
<stop offset="1" stop-color="#181381"/>
</linearGradient>
<linearGradient id="paint1_linear_291_1670" x1="-11" y1="166.5" x2="1058.77" y2="232.376" gradientUnits="userSpaceOnUse">
<stop stop-color="#05AD25"/>
<stop offset="0.5" stop-color="#0294A1"/>
<stop offset="1" stop-color="#181381"/>
</linearGradient>
</defs>
</svg>
