<svg width="32" height="25" viewBox="0 0 32 25" fill="none" xmlns="http://www.w3.org/2000/svg">
<path d="M21.3699 12.5C21.3699 15.0575 18.9699 17.1242 15.9999 17.1242C13.0299 17.1242 10.6299 15.0575 10.6299 12.5C10.6299 9.94252 13.0299 7.87585 15.9999 7.87585C18.9699 7.87585 21.3699 9.94252 21.3699 12.5Z" stroke="black" stroke-width="2" stroke-linecap="round" stroke-linejoin="round"/>
<path d="M15.9998 23.1821C21.2948 23.1821 26.2298 20.4954 29.6648 15.8454C31.0148 14.0242 31.0148 10.9629 29.6648 9.14166C26.2298 4.49166 21.2948 1.80499 15.9998 1.80499C10.7048 1.80499 5.76977 4.49166 2.33477 9.14166C0.984766 10.9629 0.984766 14.0242 2.33477 15.8454C5.76977 20.4954 10.7048 23.1821 15.9998 23.1821Z" stroke="black" stroke-width="2" stroke-linecap="round" stroke-linejoin="round"/>
</svg>
