<svg width="18" height="18" viewBox="0 0 18 18" fill="none" xmlns="http://www.w3.org/2000/svg">
<path fill-rule="evenodd" clip-rule="evenodd" d="M3.79221 0C3.54077 0 3.29963 0.0998117 3.12183 0.277478C2.94404 0.455144 2.84416 0.696111 2.84416 0.947368V1.89568C1.93308 1.90895 1.57377 2.01789 1.21256 2.21116C0.830857 2.41308 0.518714 2.725 0.316649 3.10642C0.109974 3.492 0 3.87474 0 4.93105V14.9637C0 16.0191 0.109974 16.4027 0.316649 16.7883C0.523325 17.1739 0.826701 17.4771 1.21256 17.6836C1.59842 17.8901 1.98143 18 3.03851 18H14.0264C15.0826 18 15.4665 17.8901 15.8524 17.6836C16.2382 17.4771 16.5416 17.1739 16.7483 16.7883C16.955 16.4027 17.0649 16.02 17.0649 14.9637V4.93105C17.0649 3.87474 16.955 3.492 16.7483 3.10642C16.5462 2.725 16.2341 2.41308 15.8524 2.21116C15.4912 2.01789 15.1319 1.90895 14.2208 1.89474V0.947368C14.2208 0.696111 14.1209 0.455144 13.9431 0.277478C13.7653 0.0998117 13.5242 0 13.2727 0C13.0213 0 12.7801 0.0998117 12.6024 0.277478C12.4246 0.455144 12.3247 0.696111 12.3247 0.947368V1.89474H4.74026V0.947368C4.74026 0.696111 4.64038 0.455144 4.46258 0.277478C4.28479 0.0998117 4.04365 0 3.79221 0ZM1.8961 6.63158V14.9637C1.8961 15.3682 1.91412 15.6212 1.94256 15.768C1.95393 15.8248 1.95868 15.8381 1.98901 15.8949C2.01415 15.9462 2.05546 15.9878 2.10657 16.0134C2.16345 16.0427 2.17578 16.0475 2.23361 16.0588C2.38056 16.0873 2.63369 16.1053 3.03851 16.1053H14.0264C14.4312 16.1053 14.6844 16.0873 14.8313 16.0588C14.8764 16.0522 14.9196 16.0364 14.9584 16.0124C15.0097 15.9873 15.0513 15.946 15.0769 15.8949C15.1005 15.8562 15.116 15.813 15.1224 15.768C15.1508 15.6212 15.1688 15.3682 15.1688 14.9637L15.1726 6.63158H1.8961ZM10.1916 10.4211C10.003 10.4211 9.82212 10.4959 9.68878 10.6292C9.55543 10.7624 9.48052 10.9431 9.48052 11.1316V13.5C9.48052 13.8922 9.79907 14.2105 10.1916 14.2105H12.5617C12.7503 14.2105 12.9311 14.1357 13.0645 14.0024C13.1978 13.8692 13.2727 13.6884 13.2727 13.5V11.1316C13.2727 10.9431 13.1978 10.7624 13.0645 10.6292C12.9311 10.4959 12.7503 10.4211 12.5617 10.4211H10.1916Z" fill="white"/>
</svg>
