<svg width="18" height="18" viewBox="0 0 18 18" fill="none" xmlns="http://www.w3.org/2000/svg">
<path d="M3.94781 18H13.8173C15.9886 18 17.7652 16.2235 17.7652 14.0522V7.63699C17.7652 6.35395 17.173 5.2683 16.186 4.47874L11.2513 0.728319C9.86953 -0.258634 7.89563 -0.258635 6.51389 0.827014L1.57913 4.47874C0.592172 5.2683 0 6.35395 0 7.63699V14.0522C0 16.2235 1.77652 18 3.94781 18ZM1.97391 7.63699C1.97391 7.04482 2.26999 6.45265 2.76347 6.05787L7.69824 2.30744C8.09302 2.01136 8.4878 1.91266 8.88258 1.91266C9.27736 1.91266 9.67214 2.01136 10.0669 2.30744L15.0017 6.05787C15.4952 6.45265 15.7913 7.04482 15.7913 7.63699V14.0522C15.7913 15.1378 14.903 16.0261 13.8173 16.0261H3.94781C2.86216 16.0261 1.97391 15.1378 1.97391 14.0522V7.63699Z" fill="white"/>
</svg>
